<?xml version="1.0" standalone="no"?><!DOCTYPE svg PUBLIC "-//W3C//DTD SVG 1.1//EN" "http://www.w3.org/Graphics/SVG/1.1/DTD/svg11.dtd"><svg t="1596247277888" class="icon" viewBox="0 0 1024 1024" version="1.1" xmlns="http://www.w3.org/2000/svg" p-id="2236" xmlns:xlink="http://www.w3.org/1999/xlink" width="200" height="200"><defs><style type="text/css"></style></defs><path d="M418.4 728c136.1-21.7 240.8-153.8 240.8-313.6 0-175-125.5-316.8-280.3-316.8S98.6 239.4 98.6 414.3c0 159.8 104.7 291.9 240.8 313.6l-22.8 22.3c-6.9 6.8-2 18.3 7.8 18.3h41c6.7 26.1 8.2 78.1-64.1 121.7-9.2 5.6-12.2 17.5-6.6 26.8 3.7 6.1 10.1 9.4 16.7 9.4 3.4 0 6.9-0.9 10.1-2.8 84.7-51 89.8-116.1 83.1-155.1h29c9.8 0 14.7-11.6 7.8-18.3l-23-22.2zM291.9 184.7c-1.5 1.2-150.2 118.5-109.3 275.4 2.7 10.4-3.5 21.1-13.9 23.8-1.7 0.4-3.3 0.6-4.9 0.6-8.7 0-16.6-5.8-18.9-14.6C97.3 287.8 261 159.2 268 153.8c8.5-6.6 20.7-5 27.3 3.5 6.6 8.6 5.1 20.8-3.4 27.4z" p-id="2237"></path><path d="M925.4 518.5c0-138-99-249.9-221.1-249.9-20.2 0-39.7 3.3-58.3 9.1 16.7 41.7 26.1 87.9 26.1 136.6 0 114.3-51.2 215.1-129 274.6 33.7 40.7 79.2 68.4 130.3 76.6l-18.2 17.8c-5.4 5.3-1.6 14.4 6.1 14.4h28.1c5 18.8 7.3 58.9-48.4 92.4-9.2 5.6-12.2 17.5-6.6 26.8 3.7 6.1 10.1 9.4 16.7 9.4 3.4 0 6.9-0.9 10.1-2.8 63.9-38.5 74.1-89.7 68.1-125.8h18.2c7.7 0 11.6-9.1 6.1-14.4l-18.2-17.8c107.3-16.9 190-120.9 190-247zM843 397.8c5.3-4.9 13.5-4.6 18.4 0.6 3.2 3.4 77.5 85.2 13.1 224-2.2 4.7-6.9 7.5-11.8 7.5-1.8 0-3.7-0.4-5.5-1.2-6.5-3-9.3-10.8-6.3-17.3 57.1-123-7.8-194.5-8.5-195.2-4.9-5.3-4.6-13.5 0.6-18.4z" p-id="2238"></path></svg>